<?xml version="1.0" encoding="iso-8859-1"?>
<!-- Generator: Adobe Illustrator 16.0.0, SVG Export Plug-In . SVG Version: 6.00 Build 0)  -->
<!DOCTYPE svg PUBLIC "-//W3C//DTD SVG 1.1//EN" "http://www.w3.org/Graphics/SVG/1.1/DTD/svg11.dtd">
<svg version="1.1" id="Layer_1" xmlns="http://www.w3.org/2000/svg" xmlns:xlink="http://www.w3.org/1999/xlink" x="0px" y="0px"
	 width="374px" height="90px" viewBox="0 0 374 90" style="enable-background:new 0 0 374 90;" xml:space="preserve">
<path style="fill:none;stroke:#F7728E;" d="M54.32,5.816c5.114,2.315,9.053,5.6,11.816,9.856c2.762,4.256,4.145,9.296,4.145,15.12
	c0,5.751-1.383,10.771-4.145,15.063c-2.763,4.295-6.702,7.58-11.816,9.856c-5.115,2.278-11.144,3.416-18.088,3.416H20.44v21.616
	H2.296v-78.4h33.936C43.176,2.344,49.205,3.502,54.32,5.816z M47.656,40.816c2.837-2.352,4.256-5.693,4.256-10.024
	c0-4.405-1.419-7.784-4.256-10.136c-2.838-2.352-6.982-3.528-12.432-3.528H20.44v27.216h14.784
	C40.673,44.344,44.817,43.168,47.656,40.816z"/>
<path style="fill:none;stroke:#F7728E;" d="M109.919,76.824c-6.534-3.509-11.647-8.344-15.344-14.504s-5.544-13.085-5.544-20.776
	c0-7.689,1.848-14.616,5.544-20.776s8.81-10.994,15.344-14.504C116.452,2.755,123.788,1,131.927,1
	c8.138,0,15.456,1.755,21.952,5.264c6.496,3.51,11.609,8.344,15.344,14.504c3.733,6.16,5.601,13.086,5.601,20.776
	c0,7.691-1.867,14.616-5.601,20.776c-3.734,6.16-8.848,10.995-15.344,14.504c-6.496,3.51-13.814,5.264-21.952,5.264
	C123.788,82.088,116.452,80.334,109.919,76.824z M144.471,63.439c3.733-2.127,6.664-5.096,8.792-8.903s3.192-8.138,3.192-12.992
	c0-4.853-1.064-9.184-3.192-12.992s-5.059-6.776-8.792-8.904c-3.734-2.128-7.915-3.192-12.544-3.192
	c-4.63,0-8.811,1.064-12.544,3.192c-3.734,2.128-6.664,5.096-8.792,8.904s-3.191,8.139-3.191,12.992
	c0,4.854,1.063,9.185,3.191,12.992s5.058,6.776,8.792,8.903c3.733,2.129,7.914,3.193,12.544,3.193
	C136.556,66.633,140.736,65.568,144.471,63.439z"/>
<path style="fill:none;stroke:#F7728E;" d="M250.119,80.744l-15.12-21.84h-0.896h-15.792v21.84h-18.145v-78.4h33.937
	c6.943,0,12.973,1.158,18.088,3.472c5.113,2.315,9.053,5.6,11.815,9.856c2.762,4.256,4.145,9.296,4.145,15.12
	c0,5.824-1.4,10.847-4.2,15.063c-2.8,4.22-6.776,7.449-11.928,9.688l17.584,25.2H250.119z M245.527,20.656
	c-2.839-2.352-6.982-3.528-12.433-3.528h-14.783v27.328h14.783c5.45,0,9.594-1.193,12.433-3.584
	c2.837-2.389,4.256-5.749,4.256-10.08C249.783,26.387,248.364,23.008,245.527,20.656z"/>
<path style="fill:none;stroke:#F7728E;" d="M314.286,17.128h-25.088V2.344h68.319v14.784H332.43v63.616h-18.144V17.128z"/>
</svg>
